<svg width="24" height="24" viewBox="0 0 24 24" fill="none" xmlns="http://www.w3.org/2000/svg">
<path d="M9.68866e-08 12.8979C9.24308e-08 12.3047 8.79715e-08 11.7111 8.35157e-08 11.1179C0.0154891 11.0592 0.0361411 11.001 0.0455284 10.9414C0.133769 10.3886 0.182113 9.8259 0.312597 9.28339C1.04105 6.24936 2.69931 3.83435 5.27565 2.08292C8.00407 0.228714 11.0282 -0.386069 14.2607 0.23153C17.4359 0.838335 19.9714 2.50717 21.8278 5.15308C23.6921 7.81025 24.3455 10.7748 23.8306 13.9712C23.4025 16.6275 22.1732 18.8839 20.215 20.732C18.4868 22.3628 16.4493 23.3952 14.1072 23.8134C13.6867 23.8885 13.2619 23.9382 12.839 23.9992L11.1521 23.9992C11.0845 23.9842 11.0174 23.964 10.9489 23.9542C10.4715 23.8852 9.98666 23.8481 9.51683 23.7453C6.66826 23.1207 4.33458 21.6588 2.53316 19.3686C1.24663 17.7327 0.444019 15.8785 0.135646 13.8159C0.0896487 13.5099 0.0450591 13.2039 9.68866e-08 12.8979ZM12.0195 6.56708C9.97399 6.56708 7.9285 6.58679 5.88348 6.55769C5.04801 6.54596 4.25573 7.1537 4.26089 8.19039C4.27403 10.7345 4.27403 13.279 4.26089 15.8231C4.25573 16.8645 5.05177 17.4619 5.8816 17.4577C9.95662 17.437 14.0316 17.437 18.1067 17.4577C18.9567 17.4619 19.7339 16.8504 19.7288 15.8245C19.7166 13.2804 19.7166 10.7359 19.7288 8.1918C19.7339 7.15934 18.9506 6.54549 18.1081 6.55769C16.0785 6.58679 14.0485 6.56708 12.019 6.56708L12.0195 6.56708Z" fill="white"/>
<path d="M5.50751 8.41992C5.84967 8.69024 6.15899 8.93427 6.46783 9.17972C8.16082 10.5238 9.85288 11.8683 11.5468 13.2115C11.8697 13.4677 12.1335 13.4593 12.4743 13.1889C14.3935 11.6656 16.3127 10.1418 18.2315 8.61797C18.3033 8.56071 18.3765 8.50487 18.4826 8.4218C18.4887 8.53584 18.4958 8.60905 18.4962 8.68273C18.4967 11.048 18.4967 13.4133 18.4962 15.7785C18.4962 16.1526 18.4235 16.223 18.0423 16.223C14.0053 16.223 9.96835 16.223 5.93134 16.223C5.56853 16.223 5.4939 16.1493 5.4939 15.7861C5.4939 13.4128 5.4939 11.04 5.4939 8.66677C5.4939 8.60013 5.50094 8.53302 5.50704 8.41992L5.50751 8.41992Z" fill="white"/>
<path d="M6.73877 7.80613L17.2478 7.80613C17.1765 7.87371 17.1277 7.92674 17.0723 7.97086C15.4347 9.27082 13.7947 10.5684 12.1595 11.8712C12.0426 11.9646 11.9694 11.982 11.8436 11.8815C10.197 10.5675 8.54535 9.25956 6.89554 7.94927C6.84954 7.91266 6.8087 7.87043 6.73877 7.80566L6.73877 7.80613Z" fill="white"/>
</svg>
