<svg width="23" height="23" viewBox="0 0 23 23" fill="none" xmlns="http://www.w3.org/2000/svg">
<path d="M10.8352 23L10.2519 23C8.49558 22.6456 6.73925 22.2908 4.98293 21.9364C3.58506 21.6544 2.1854 21.38 0.789785 21.0877C0.271207 20.9797 1.54863e-07 20.6168 1.50924e-07 20.0923C1.03217e-07 13.7412 5.55109e-08 7.39011 0.000899535 1.039C0.000899534 0.942754 0.0049474 0.842907 0.0292346 0.750705C0.160116 0.252817 0.516778 4.99698e-05 1.08483 4.99656e-05C6.13432 4.99276e-05 11.1838 4.98897e-05 16.2333 4.98518e-05C16.2783 4.98514e-05 16.3233 -0.000399912 16.3678 0.00139914C16.8513 0.0193897 17.2673 0.430473 17.2682 0.916218C17.2727 2.86864 17.2741 4.82106 17.2682 6.77349C17.2664 7.37482 16.67 7.82099 16.0862 7.67976C15.6054 7.56372 15.3108 7.18502 15.3095 6.6615C15.3063 5.20291 15.3081 3.74388 15.3081 2.2853C15.3081 2.07091 15.1992 1.96357 14.9812 1.96327C12.6473 1.96327 10.3131 1.96327 7.97925 1.96327C7.92528 1.96327 7.87131 1.96327 7.81779 1.96327C8.76094 2.27855 9.70274 2.5718 10.6508 2.84031C11.1798 2.99008 11.5355 3.3211 11.5333 4.01059C11.5193 8.94809 11.5256 13.8851 11.5261 18.8226C11.5261 19.1199 11.5342 19.1285 11.8256 19.1289C12.8803 19.1298 13.935 19.1298 14.9902 19.1289C15.3045 19.1289 15.3081 19.1249 15.3086 18.819C15.309 17.8692 15.3086 16.9188 15.3086 15.9689C15.3086 15.4301 15.2992 14.8913 15.3135 14.3533C15.3279 13.8154 15.788 13.3832 16.3075 13.3945C16.8526 13.4061 17.27 13.8244 17.2705 14.3731C17.2732 16.2959 17.2714 18.2182 17.2714 20.1409C17.2714 20.5102 17.1067 20.7868 16.7946 20.9748C16.5828 21.1025 16.344 21.1263 16.1024 21.1263C14.8233 21.1263 13.5442 21.1263 12.2646 21.1263C12.0851 21.1263 11.9057 21.1295 11.7258 21.1263C11.5837 21.1236 11.5216 21.188 11.5247 21.3301C11.5292 21.5095 11.5135 21.6899 11.5274 21.8684C11.5706 22.4167 11.3345 22.7878 10.8348 23.0005L10.8352 23Z" fill="white"/>
<path d="M23 10.8355C22.915 11.0293 22.7959 11.1984 22.6452 11.3487C21.7502 12.241 20.8551 13.1329 19.965 14.0302C19.6686 14.3288 19.33 14.4799 18.9126 14.3684C18.1687 14.17 17.9452 13.2925 18.4925 12.7065C18.8038 12.3732 19.1352 12.0593 19.4573 11.7364C19.509 11.6842 19.5576 11.6293 19.6174 11.565C19.5216 11.5034 19.4307 11.5272 19.3466 11.5272C17.7315 11.5254 16.116 11.5092 14.5013 11.5344C13.8874 11.5439 13.4138 11.1535 13.3976 10.5544C13.3819 9.97554 13.8546 9.56311 14.5162 9.56311C16.1164 9.56221 17.7167 9.56311 19.3165 9.56311C19.4051 9.56311 19.4941 9.56311 19.5809 9.56311C19.6079 9.47001 19.5396 9.44392 19.5018 9.40614C19.1757 9.07691 18.8442 8.75218 18.5195 8.42116C18.0859 7.97904 18.0702 7.3849 18.4763 6.98012C18.8802 6.57758 19.4757 6.59512 19.9169 7.03364C20.8398 7.95071 21.7573 8.87317 22.6789 9.79159C22.8246 9.93686 22.9348 10.1019 23.0005 10.2971L23.0005 10.8359L23 10.8355Z" fill="white"/>
</svg>
