<svg width="52" height="52" viewBox="0 0 52 52" fill="none" xmlns="http://www.w3.org/2000/svg">
<path d="M26 17C33.28 17 39 25.2289 39 25.7432C38.9977 26.2606 33.2786 35 26 35C18.7214 35 13.0023 26.2606 13 25.7432C13 25.2289 18.72 17 26 17ZM26 20C22.6863 20 20 22.6863 20 26C20 29.3137 22.6863 32 26 32C29.3137 32 32 29.3137 32 26C32 22.6863 29.3137 20 26 20ZM26 22C28.2091 22 30 23.7909 30 26C30 28.2091 28.2091 30 26 30C23.7909 30 22 28.2091 22 26C22 23.7909 23.7909 22 26 22Z" fill="#7F99B2"/>
</svg>
