<svg width="52" height="52" viewBox="0 0 52 52" fill="none" xmlns="http://www.w3.org/2000/svg">
<path d="M13 38L37.499 13.4999" stroke="#7F99B2" stroke-width="1.6" stroke-linecap="round"/>
<path d="M33.9912 20.1387C37.0549 22.5233 39 25.4434 39 25.7432C38.9977 26.2606 33.2786 35 26 35C24.0807 35 22.2717 34.3888 20.6455 33.4844L22.958 31.1709C23.8501 31.6969 24.8894 32 26 32C29.3137 32 32 29.3137 32 26C32 24.8894 31.6969 23.8501 31.1709 22.958L33.9912 20.1387ZM26 17C28.4541 17 30.7297 17.9368 32.6699 19.1963L30.1738 21.6924C29.0938 20.6457 27.6228 20 26 20C22.6863 20 20 22.6863 20 26C20 27.6233 20.6461 29.0947 21.6934 30.1748L19.252 32.6152C15.4812 29.9872 13.0015 26.0838 13 25.7432C13 25.2289 18.72 17 26 17ZM29.6855 24.4434C29.8879 24.9218 30 25.4478 30 26C30 28.2091 28.2091 30 26 30C25.4481 30 24.9226 29.8877 24.4443 29.6855L29.6855 24.4434ZM26 22C27.0705 22 28.0419 22.4215 28.7598 23.1064L23.1074 28.7607C22.422 28.0428 22 27.071 22 26C22 23.7909 23.7909 22 26 22Z" fill="#7F99B2"/>
</svg>
