<svg width="24" height="24" viewBox="0 0 24 24" fill="none" xmlns="http://www.w3.org/2000/svg">
<path d="M11.9999 -9.01389e-08C18.6533 -1.40116e-07 24.0259 5.3789 23.9999 12.0136C23.9738 18.6766 18.6442 24 11.9999 24C5.34924 24 -0.0273329 18.6166 -0.000141364 11.9853C0.0276167 5.32169 5.35547 -4.02295e-08 11.9999 -9.01389e-08ZM15.4283 18.4432C15.6033 18.4177 15.9262 18.4008 16.2333 18.3215C17.2274 18.0643 17.9894 17.5188 18.3406 16.5111C18.5213 15.9923 18.4856 15.3771 17.8868 14.9285C17.4053 14.5677 16.9351 14.1865 16.4978 13.7741C15.9528 13.2603 15.4039 13.2971 14.8793 13.6517C14.3621 14.0012 13.8982 14.4346 13.4404 14.8633C13.1334 15.1511 13.147 15.1896 12.7952 14.9409C11.3677 13.9338 10.152 12.7086 9.12151 11.301C8.80428 10.8677 8.8275 10.8637 9.22405 10.491C9.77468 9.97385 10.3026 9.4346 10.5417 8.68973C10.6539 8.33911 10.6301 7.99981 10.3859 7.70413C9.90044 7.11617 9.42289 6.52141 8.91588 5.9527C8.77539 5.79523 8.55559 5.66778 8.34995 5.61794C7.65147 5.44971 7.07194 5.74085 6.57966 6.2008C5.76391 6.96323 5.50333 7.9409 5.58207 9.0245C5.64665 9.92117 5.9282 10.7612 6.37233 11.5333C7.82538 14.0567 9.82283 16.0546 12.3177 17.5471C13.224 18.0892 14.2148 18.4109 15.4283 18.4438L15.4283 18.4432Z" fill="white"/>
</svg>
